<?xml version="1.0" encoding="UTF-8" standalone="no"?>
<svg
   xmlns:dc="http://purl.org/dc/elements/1.1/"
   xmlns:cc="http://creativecommons.org/ns#"
   xmlns:rdf="http://www.w3.org/1999/02/22-rdf-syntax-ns#"
   xmlns:svg="http://www.w3.org/2000/svg"
   xmlns="http://www.w3.org/2000/svg"
   version="1.1"
   id="svg4703"
   viewBox="0 0 64 64"
   height="64"
   width="64">
  <defs
     id="defs4705" />
  <metadata
     id="metadata4708">
    <rdf:RDF>
      <cc:Work
         rdf:about="">
        <dc:format>image/svg+xml</dc:format>
        <dc:type
           rdf:resource="http://purl.org/dc/dcmitype/StillImage" />
        <dc:title />
      </cc:Work>
    </rdf:RDF>
  </metadata>
  <g
     id="layer2">
    <g
       style="font-style:normal;font-weight:normal;font-size:30px;line-height:125%;font-family:sans-serif;letter-spacing:0px;word-spacing:0px;fill:#000000;fill-opacity:1;stroke:none;stroke-width:1px;stroke-linecap:butt;stroke-linejoin:miter;stroke-opacity:1"
       id="text4148">
      <path
         d="m 31.790917,42.172935 q -3.398438,7.734375 -10.390625,7.734375 -4.882813,0 -8.984375,-4.492187 -4.0625001,-4.53125 -4.0625001,-13.007813 0,-6.953125 2.4218751,-11.328125 2.460937,-4.414062 6.40625,-6.757812 3.945312,-2.34375 10.507812,-2.34375 l 0,1.445312 q -5.78125,0 -8.984375,4.765625 -3.203125,4.765625 -3.203125,13.515625 0,8.867188 2.070313,12.148438 2.109375,3.28125 4.960937,3.28125 1.835938,0 3.554688,-1.132813 1.757812,-1.132812 2.460937,-2.382812 0.703125,-1.289063 2.148438,-5.234375 -2.460938,-5.15625 -2.460938,-10.898438 0,-8.710937 3.554688,-8.710937 3.554687,0 3.554687,8.046875 0,5.546875 -2.578125,11.5625 2.8125,8.75 8.046875,8.75 2.929688,0 5.039063,-3.046875 2.148437,-3.085938 2.148437,-11.601563 0,-7.109375 -1.40625,-10.859375 -1.367187,-3.789062 -4.101562,-5.898437 -2.734375,-2.148438 -6.679688,-2.304688 l 0,-1.445312 q 6.5625,0 10.507813,2.382812 3.945312,2.382813 6.367187,6.71875 2.421875,4.335938 2.421875,11.210938 0,8.59375 -3.945312,13.125 -3.90625,4.492187 -9.140625,4.492187 -7.1875,0 -10.234375,-7.734375 z"
         style="font-style:normal;font-variant:normal;font-weight:normal;font-stretch:normal;font-size:80px;font-family:'Times New Roman';-inkscape-font-specification:'Times New Roman, '"
         id="path4155" />
    </g>
  </g>
</svg>
