<?xml version="1.0" encoding="UTF-8" standalone="no"?>
<svg
   xmlns:dc="http://purl.org/dc/elements/1.1/"
   xmlns:cc="http://creativecommons.org/ns#"
   xmlns:rdf="http://www.w3.org/1999/02/22-rdf-syntax-ns#"
   xmlns:svg="http://www.w3.org/2000/svg"
   xmlns="http://www.w3.org/2000/svg"
   width="64"
   height="64"
   viewBox="0 0 64 64"
   id="svg4703"
   version="1.1">
  <defs
     id="defs4705" />
  <metadata
     id="metadata4708">
    <rdf:RDF>
      <cc:Work
         rdf:about="">
        <dc:format>image/svg+xml</dc:format>
        <dc:type
           rdf:resource="http://purl.org/dc/dcmitype/StillImage" />
        <dc:title></dc:title>
      </cc:Work>
    </rdf:RDF>
  </metadata>
  <g
     id="text4134"
     style="font-style:normal;font-weight:normal;font-size:30px;line-height:125%;font-family:sans-serif;letter-spacing:0px;word-spacing:0px;fill:#000000;fill-opacity:1;stroke:none;stroke-width:1px;stroke-linecap:butt;stroke-linejoin:miter;stroke-opacity:1">
    <path
       id="path4139"
       style="font-style:normal;font-variant:normal;font-weight:normal;font-stretch:normal;font-size:70px;font-family:'Times New Roman';-inkscape-font-specification:'Times New Roman, '"
       d="M 32.507812,43.232422 Q 29.53418,50 23.416016,50 19.143555,50 15.554688,46.069336 12,42.104492 12,34.6875 q 0,-6.083984 2.119141,-9.912109 2.15332,-3.862305 5.605468,-5.913086 3.452149,-2.050782 9.194336,-2.050782 l 0,1.264649 q -5.058593,0 -7.861328,4.169922 -2.802734,4.169922 -2.802734,11.826172 0,7.758789 1.811523,10.629882 1.845703,2.871094 4.340821,2.871094 1.606445,0 3.110351,-0.991211 1.538086,-0.991211 2.15332,-2.084961 0.615235,-1.127929 1.879883,-4.580078 -2.15332,-4.511719 -2.15332,-9.536133 0,-7.62207 3.110351,-7.62207 3.110352,0 3.110352,7.041016 0,4.853515 -2.255859,10.117187 2.460937,7.65625 7.041015,7.65625 2.563477,0 4.40918,-2.666015 1.879883,-2.700196 1.879883,-10.151368 0,-6.220703 -1.230469,-9.501953 -1.196289,-3.315429 -3.588867,-5.161133 -2.392578,-1.879882 -5.844727,-2.016601 l 0,-1.264649 q 5.742188,0 9.194336,2.084961 3.452149,2.084961 5.571289,5.878907 2.119141,3.793945 2.119141,9.80957 0,7.519531 -3.452149,11.484375 Q 46.042969,50 41.462891,50 35.173828,50 32.507812,43.232422 Z" />
  </g>
</svg>
