<?xml version="1.0" encoding="UTF-8" standalone="no"?>
<svg
   xmlns:dc="http://purl.org/dc/elements/1.1/"
   xmlns:cc="http://creativecommons.org/ns#"
   xmlns:rdf="http://www.w3.org/1999/02/22-rdf-syntax-ns#"
   xmlns:svg="http://www.w3.org/2000/svg"
   xmlns="http://www.w3.org/2000/svg"
   width="64"
   height="64"
   viewBox="0 0 64 64"
   id="svg4703"
   version="1.1">
  <defs
     id="defs4705" />
  <metadata
     id="metadata4708">
    <rdf:RDF>
      <cc:Work
         rdf:about="">
        <dc:format>image/svg+xml</dc:format>
        <dc:type
           rdf:resource="http://purl.org/dc/dcmitype/StillImage" />
        <dc:title></dc:title>
      </cc:Work>
    </rdf:RDF>
  </metadata>
  <g
     id="text4135"
     style="font-style:normal;font-weight:normal;font-size:30px;line-height:125%;font-family:sans-serif;letter-spacing:0px;word-spacing:0px;fill:#ffffff;fill-opacity:1;stroke:none;stroke-width:1px;stroke-linecap:butt;stroke-linejoin:miter;stroke-opacity:1">
    <path
       id="path4140"
       style="font-style:italic;font-variant:normal;font-weight:normal;font-stretch:normal;font-size:70px;font-family:'Times New Roman';-inkscape-font-specification:'Times New Roman, Italic';fill:#ffffff"
       d="m 25.481842,15.880943 q 1.162109,1.982422 1.606445,3.725586 0.444336,1.708985 0.888672,6.767578 l 1.503906,16.816407 q 2.050782,-2.460938 5.947266,-7.792969 1.879883,-2.597656 4.648438,-7.075195 1.674804,-2.734375 2.050781,-3.828125 0.205078,-0.546875 0.205078,-1.12793 0,-0.375977 -0.239258,-0.615235 -0.239258,-0.239257 -1.264648,-0.546875 -0.991211,-0.341796 -1.674805,-1.196289 -0.649414,-0.888671 -0.649414,-2.016601 0,-1.401367 0.820312,-2.25586 0.820313,-0.854492 2.050782,-0.854492 1.503906,0 2.563476,1.264649 1.059571,1.230468 1.059571,3.417968 0,2.700196 -1.845704,6.186524 -1.845703,3.452148 -7.109375,10.629883 -5.263671,7.177734 -12.749023,15.654297 -5.161133,5.844726 -7.65625,7.348632 -2.495117,1.538086 -4.272461,1.538086 -1.05957,0 -1.845703,-0.820312 -0.8203125,-0.786133 -0.8203125,-1.845703 0,-1.333008 1.1279297,-2.426758 1.0937498,-1.09375 2.3925778,-1.09375 0.683594,0 1.12793,0.307617 0.273437,0.170899 0.615234,0.957031 0.307618,0.820313 0.581055,1.09375 0.170898,0.170899 0.410156,0.170899 0.205078,0 0.717774,-0.341797 1.879883,-1.162109 4.375,-3.691406 3.28125,-3.34961 4.853515,-5.46875 L 22.986725,27.091881 q -0.478516,-5.366211 -1.435547,-6.528321 -0.957031,-1.162109 -3.212891,-1.162109 -0.717773,0 -2.563476,0.205078 l -0.307617,-1.264648 10.014648,-2.460938 z" />
  </g>
</svg>
