<?xml version="1.0" encoding="UTF-8" standalone="no"?>
<svg
   xmlns:dc="http://purl.org/dc/elements/1.1/"
   xmlns:cc="http://creativecommons.org/ns#"
   xmlns:rdf="http://www.w3.org/1999/02/22-rdf-syntax-ns#"
   xmlns:svg="http://www.w3.org/2000/svg"
   xmlns="http://www.w3.org/2000/svg"
   width="64"
   height="64"
   viewBox="0 0 64 64"
   id="svg4703"
   version="1.1">
  <defs
     id="defs4705" />
  <metadata
     id="metadata4708">
    <rdf:RDF>
      <cc:Work
         rdf:about="">
        <dc:format>image/svg+xml</dc:format>
        <dc:type
           rdf:resource="http://purl.org/dc/dcmitype/StillImage" />
        <dc:title />
      </cc:Work>
    </rdf:RDF>
  </metadata>
  <g
     id="layer2">
    <g
       id="text4149"
       style="font-style:normal;font-weight:normal;font-size:30px;line-height:125%;font-family:sans-serif;letter-spacing:0px;word-spacing:0px;fill:#ffffff;fill-opacity:1;stroke:none;stroke-width:1px;stroke-linecap:butt;stroke-linejoin:miter;stroke-opacity:1">
      <path
         id="path11"
         style="font-style:italic;font-variant:normal;font-weight:normal;font-stretch:normal;font-size:80px;font-family:'Times New Roman';-inkscape-font-specification:'Times New Roman, Italic';fill:#ffffff"
         d="m 27.68869,11.427998 q 1.328125,2.265625 1.835938,4.257812 0.507812,1.953125 1.015625,7.734375 l 1.71875,19.21875 q 2.34375,-2.8125 6.796875,-8.90625 2.148437,-2.96875 5.3125,-8.085937 1.914062,-3.125 2.34375,-4.375 0.234375,-0.625 0.234375,-1.289063 0,-0.429687 -0.273438,-0.703125 -0.273437,-0.273437 -1.445312,-0.625 -1.132813,-0.390625 -1.914063,-1.367187 -0.742187,-1.015625 -0.742187,-2.304688 0,-1.601562 0.9375,-2.578125 0.9375,-0.976562 2.34375,-0.976562 1.71875,0 2.929687,1.445312 1.210938,1.40625 1.210938,3.90625 0,3.085938 -2.109375,7.070313 -2.109375,3.945312 -8.125,12.148437 -6.015625,8.203125 -14.570313,17.890625 -5.898437,6.679688 -8.75,8.398438 -2.851562,1.757812 -4.882812,1.757812 -1.210938,0 -2.1093753,-0.9375 -0.9375,-0.898437 -0.9375,-2.109375 0,-1.523437 1.2890625,-2.773437 1.2499998,-1.25 2.7343748,-1.25 0.78125,0 1.289063,0.351562 0.3125,0.195313 0.703125,1.09375 0.351562,0.9375 0.664062,1.25 0.195313,0.195313 0.46875,0.195313 0.234375,0 0.820313,-0.390625 2.148437,-1.328125 5,-4.21875 3.75,-3.828125 5.546875,-6.25 l -2.1875,-24.765625 q -0.546875,-6.132813 -1.640625,-7.460938 -1.09375,-1.328125 -3.671875,-1.328125 -0.820313,0 -2.929688,0.234375 l -0.351562,-1.445312 11.445312,-2.8125 z" />
    </g>
  </g>
</svg>
