<?xml version="1.0" encoding="UTF-8" standalone="no"?>
<svg
   xmlns:dc="http://purl.org/dc/elements/1.1/"
   xmlns:cc="http://creativecommons.org/ns#"
   xmlns:rdf="http://www.w3.org/1999/02/22-rdf-syntax-ns#"
   xmlns:svg="http://www.w3.org/2000/svg"
   xmlns="http://www.w3.org/2000/svg"
   version="1.1"
   id="svg4703"
   viewBox="0 0 64 64"
   height="64"
   width="64">
  <defs
     id="defs4705" />
  <metadata
     id="metadata4708">
    <rdf:RDF>
      <cc:Work
         rdf:about="">
        <dc:format>image/svg+xml</dc:format>
        <dc:type
           rdf:resource="http://purl.org/dc/dcmitype/StillImage" />
        <dc:title />
      </cc:Work>
    </rdf:RDF>
  </metadata>
  <g
     id="layer2">
    <g
       style="font-style:normal;font-weight:normal;font-size:30px;line-height:125%;font-family:sans-serif;letter-spacing:0px;word-spacing:0px;fill:#000000;fill-opacity:1;stroke:none;stroke-width:1px;stroke-linecap:butt;stroke-linejoin:miter;stroke-opacity:1"
       id="text4148">
      <path
         d="m 14.040205,16.072052 11.289063,-2.421875 q 1.210937,2.890625 1.953125,5.898438 1.054687,4.414062 1.71875,10.46875 0.3125,3.046875 0.859375,12.890625 4.882812,-5.390625 5.820312,-6.679688 5.15625,-6.992187 5.9375,-8.203125 1.289063,-2.070312 1.796875,-3.632812 0.429688,-1.171875 0.429688,-2.226563 0,-1.015625 -1.835938,-2.34375 -1.796875,-1.328125 -1.796875,-2.96875 0,-1.25 0.976563,-2.226562 1.015625,-0.976563 2.382812,-0.976563 1.640625,0 2.890625,1.367188 1.25,1.328125 1.25,3.320312 0,1.992188 -0.625,3.828125 -1.015625,2.96875 -3.789062,7.265625 -2.773438,4.257813 -8.945313,11.445313 -0.78125,0.898437 -8.671875,9.0625 l -1.445312,0 q -0.9375,-24.726563 -3.90625,-30.859375 -0.976563,-1.992188 -3.242188,-1.992188 -0.976562,0 -2.773437,0.351563 l -0.273438,-1.367188 z"
         style="font-style:italic;font-variant:normal;font-weight:normal;font-stretch:normal;font-size:80px;font-family:'Times New Roman';-inkscape-font-specification:'Times New Roman, Italic'"
         id="path4153" />
    </g>
  </g>
</svg>
